<svg width="170" height="36" viewBox="0 0 170 36" fill="none" xmlns="http://www.w3.org/2000/svg">
<path d="M169.649 27.8649H117.052L125.234 10.4494L169.688 10.3715L169.649 27.8649Z" fill="#FE3C02"/>
<path d="M71.9357 34.6051C71.1175 34.6051 70.4941 34.3713 70.0655 33.9038C69.637 33.4363 69.4032 32.7739 69.4032 31.8778C69.4032 31.0207 69.637 30.3194 70.0655 29.8519C70.5331 29.3843 71.1564 29.1506 71.9746 29.1506C72.4421 29.1506 72.9876 29.2285 73.611 29.3843V30.0467C72.9097 29.8129 72.3642 29.696 71.9746 29.696C71.3902 29.696 70.9616 29.8908 70.6499 30.2804C70.3383 30.67 70.1824 31.1765 70.1824 31.8778C70.1824 32.5402 70.3383 33.0467 70.6889 33.4363C71.0006 33.8259 71.4681 34.0207 72.0525 34.0207C72.559 34.0207 73.0655 33.8648 73.6499 33.5531V34.1765C73.1045 34.4882 72.559 34.6051 71.9357 34.6051Z" fill="#FE3C02"/>
<path d="M82.1434 34.0596C82.8837 34.0596 83.2343 33.5531 83.2343 32.5791C83.2343 31.6051 82.8837 31.0986 82.1434 31.0986C81.4421 31.0986 81.0525 31.6051 81.0525 32.5791C81.0525 33.5531 81.4032 34.0596 82.1434 34.0596ZM82.1044 34.5661C81.559 34.5661 81.1304 34.3713 80.7798 34.0207C80.4681 33.67 80.3123 33.1635 80.3123 32.5791C80.3123 31.9557 80.4681 31.4882 80.8187 31.0986C81.1304 30.748 81.598 30.5532 82.1434 30.5532C82.6889 30.5532 83.1564 30.748 83.4681 31.0986C83.7798 31.4493 83.9746 31.9557 83.9746 32.5402C83.9746 33.1635 83.8187 33.6311 83.4681 34.0207C83.1564 34.3713 82.6889 34.5661 82.1044 34.5661Z" fill="#FE3C02"/>
<path d="M90.9485 34.4882V30.67H91.6498V31.3713C92.0004 30.8259 92.468 30.5532 92.9745 30.5532C93.2861 30.5532 93.5589 30.67 93.7537 30.8648C93.9485 31.0597 94.0264 31.3713 94.0264 31.722V34.4492H93.3251V31.9168C93.3251 31.6441 93.2861 31.4493 93.2082 31.2934C93.1303 31.1765 92.9745 31.0986 92.7796 31.0986C92.3511 31.0986 91.9615 31.3713 91.5719 31.9168V34.3713H90.9485" fill="#FE3C02"/>
<path d="M102.832 34.5661C102.325 34.5661 101.897 34.3713 101.546 33.9817C101.195 33.5921 101.039 33.1246 101.039 32.5402C101.039 31.9168 101.195 31.4493 101.546 31.0986C101.897 30.748 102.364 30.5921 102.949 30.5921C103.26 30.5921 103.572 30.6311 103.961 30.709V31.2934C103.572 31.1765 103.26 31.1376 103.026 31.1376C102.676 31.1376 102.403 31.2545 102.169 31.5272C101.974 31.7999 101.858 32.1506 101.858 32.5791C101.858 33.0077 101.974 33.3583 102.208 33.6311C102.442 33.9038 102.715 34.0207 103.065 34.0207C103.377 34.0207 103.689 33.9428 104.039 33.7869V34.3713C103.533 34.4882 103.143 34.5661 102.832 34.5661Z" fill="#FE3C02"/>
<path d="M111.364 32.1506H113.039C113.039 31.4493 112.767 31.0986 112.26 31.0986C111.715 31.0986 111.442 31.4493 111.364 32.1506ZM113.741 34.3713C113.273 34.5272 112.884 34.5661 112.533 34.5661C111.987 34.5661 111.52 34.3713 111.169 34.0207C110.819 33.6311 110.624 33.1636 110.624 32.5791C110.624 31.9947 110.78 31.5272 111.091 31.1766C111.403 30.7869 111.793 30.6311 112.299 30.6311C112.767 30.6311 113.117 30.7869 113.351 31.1376C113.624 31.4493 113.741 31.9168 113.741 32.5402V32.735H111.325C111.442 33.6311 111.871 34.0986 112.65 34.0986C112.922 34.0986 113.273 34.0207 113.702 33.8649V34.3713" fill="#FE3C02"/>
<path d="M120.87 34.4882V30.67H121.572V31.3713C121.844 30.8259 122.234 30.5532 122.78 30.5532L123.013 30.5921V31.2155C122.896 31.1765 122.78 31.1765 122.702 31.1765C122.273 31.1765 121.883 31.4493 121.611 31.9557V34.4882H120.87Z" fill="#FE3C02"/>
<path d="M130.844 34.5661C130.494 34.5661 130.221 34.4882 130.026 34.2545C129.831 34.0596 129.715 33.7869 129.715 33.4363V31.1765H129.247V30.6701H129.715V29.9688L130.416 29.8908V30.6701H131.429V31.1765H130.416V33.2804C130.416 33.7869 130.65 34.0207 131.078 34.0207C131.156 34.0207 131.273 34.0207 131.39 33.9817V34.4493C131.195 34.5272 131 34.5661 130.844 34.5661Z" fill="#FE3C02"/>
<path d="M32.7801 18.5532C31.923 19.761 31.3386 20.2675 30.5593 20.6961C30.2087 20.8909 29.936 20.9688 29.4684 21.1636C29.1957 21.2805 29.0399 21.709 28.8061 21.9038C28.2996 22.3324 27.7152 22.0986 27.1697 22.0207C27.1697 21.9428 27.1697 21.9818 27.1697 22.1376V21.9818V22.0207C27.2477 21.0467 27.7542 20.5792 28.0658 20.1116C28.6113 19.2935 29.2347 18.8649 29.897 18.4363C30.6373 17.9298 31.1827 16.8779 31.9619 16.3325C32.2347 16.1766 33.4424 14.9299 34.0268 15.8649C34.4554 16.4493 33.2866 17.813 32.7801 18.5532ZM36.4035 15.826C36.6762 14.5792 35.7411 14.0338 35.1957 13.6831L35.0788 13.6052C34.4944 13.2545 32.4684 13.6831 32.2347 13.9169C32.0009 14.1117 30.91 15.0078 30.5593 15.1247C29.858 15.3584 29.6243 16.0208 29.2347 16.5662C28.8451 17.1117 28.2607 17.4234 27.871 17.9298C27.6762 18.1636 26.7412 19.2155 26.4685 19.5662C26.1957 19.9168 26.0399 20.3454 25.7672 20.6961C25.3386 21.2026 24.8321 21.3974 25.3776 22.4883L25.2607 22.9168C25.2996 23.2675 25.8061 23.735 26.1957 24.0077C26.6243 24.2805 26.7022 24.2415 26.897 24.1246C27.0139 24.0467 26.9749 23.9688 27.2087 24.0077C27.3256 24.0077 27.5594 24.1636 27.6762 24.1636C28.1438 24.2415 28.4944 23.774 28.8061 23.6181C29.2347 23.3844 29.6243 23.2675 30.0139 22.9947C30.5593 22.6051 31.3775 22.2935 31.9619 21.9428C32.3126 21.709 32.5074 21.1636 33.1697 20.5792C33.4814 20.3065 33.6372 19.9558 33.9489 19.6831C34.3385 19.3324 35.4294 17.8909 35.5853 17.3844C35.7022 17.0337 35.5853 16.6441 35.7801 17.1506C35.897 17.4234 36.0139 17.3844 36.2087 17.735C36.7931 17.9298 36.7151 17.8519 36.871 17.5792C37.0658 17.2285 37.1048 17.5013 37.4554 17.3454C37.5723 17.3065 37.6892 17.1506 37.7671 17.1117C37.9229 16.9558 37.1827 17.1117 36.4035 15.826Z" fill="#EFEFEF"/>
<path d="M69.2085 17.6571C68.9747 17.774 68.8578 18.0078 68.624 18.1636C68.3513 18.3584 68.0007 18.4753 67.7279 18.7091C67.5331 18.9039 67.3773 19.0987 67.1825 19.2545C66.676 19.6831 66.1695 20.0727 65.6241 20.4234C65.1955 20.735 64.5332 21.1636 64.0267 21.2805C63.9098 21.3195 63.9487 21.2026 63.9487 21.2026C63.8708 20.6571 64.2994 19.8779 64.689 19.5662C65.2345 19.1376 65.702 18.4753 66.2864 18.0857C66.8318 17.7351 67.3383 17.3844 67.8838 17.0727C68.1955 16.9169 68.702 17.0338 69.0526 16.9558C69.2085 16.9169 69.676 16.9948 69.7929 17.0727C70.2994 17.3065 69.2864 17.6182 69.2085 17.6571ZM72.4812 15.787C72.2864 15.6312 72.1305 15.5533 71.9357 15.3585C71.7019 15.1247 71.624 15.1247 71.2734 15.2026C70.8448 15.2805 69.9487 15.2026 69.5591 15.3585C69.0916 15.5533 68.702 15.5922 68.2344 15.7481C67.65 15.9039 67.2604 16.4883 66.7929 16.8C66.3643 17.1117 65.8578 17.2286 65.4293 17.5403C64.5721 18.1636 63.6371 18.9039 62.8189 19.5662C62.3903 19.9169 62.1565 20.6571 62.0397 21.2415C62.0007 21.5143 61.9617 21.748 61.9228 22.0207C61.8449 22.5662 61.6111 23.0337 61.9228 23.5013C62.1565 23.6571 62.3124 23.8129 62.663 23.6571C62.8968 23.5402 63.1306 23.3065 63.3643 23.1117C63.5981 22.9168 63.8319 22.761 64.0267 22.5662C64.4552 22.2156 65.0007 22.0207 65.4293 21.6701C65.7409 21.4363 66.0526 21.0857 66.4033 20.8519C66.715 20.6182 67.0656 20.5402 67.3773 20.3065C67.8059 19.9948 68.2344 19.3714 68.7409 19.2545C68.7799 19.5662 68.2344 20.0337 68.0396 20.2675C67.8448 20.5013 67.65 20.735 67.4942 21.0078C67.2994 21.3584 67.2214 21.748 66.9877 22.0597C66.676 22.5272 66.3643 23.0727 66.2085 23.6181C66.0526 24.1636 66.1695 24.8259 66.7539 25.0597C67.4163 25.2935 67.7669 24.748 68.3513 24.5142C68.702 24.3584 68.7409 24.2415 68.7799 23.8519C68.8188 23.6571 68.8578 23.6961 68.7799 23.5013C68.7409 23.3844 68.624 23.3454 68.5851 23.1896C68.5072 22.722 68.9747 22.0597 69.2085 21.6311C69.4812 21.0467 69.7539 20.5013 70.1045 19.9558C70.4552 19.4493 70.8838 18.9428 71.2734 18.3974C71.5851 17.9688 71.8188 17.5013 72.1305 17.1117C72.3643 16.839 73.0266 16.2546 72.4812 15.787ZM62.4682 23.6181L62.4293 23.5402L62.4682 23.6181Z" fill="#EFEFEF"/>
<path d="M64.65 5.89097C64.7668 5.81305 64.8058 5.6572 64.9227 5.57928C65.0006 5.54032 65.1564 5.54032 65.2733 5.50136C65.3902 5.4624 65.4681 5.38448 65.624 5.34552C65.7798 5.30656 65.8967 5.38448 66.0525 5.30656C66.3253 5.15071 66.2473 4.83903 66.598 5.22864C66.8707 5.54032 66.7538 5.81305 66.559 6.04681C66.2084 6.5533 65.7798 6.98187 65.3902 7.41044C64.9227 7.91693 64.4552 8.50134 64.0266 9.00783C63.4032 9.74809 63.0136 10.4883 62.3123 11.1507C62.0006 11.4234 61.7279 11.774 61.4552 12.0468C61.2604 12.2416 60.8318 12.4364 60.8708 12.7481C61.2214 12.7481 61.65 12.7091 61.9617 12.6312C62.5461 12.4753 62.8578 12.5143 63.4422 12.3585C63.9097 12.2416 64.4162 12.1637 64.8837 12.0857C65.3902 12.0078 65.8577 11.8909 66.3642 11.852C66.9486 11.774 67.8058 11.6182 68.3512 11.9299C68.9356 12.3195 68.7798 12.7091 68.546 13.1766C68.3902 13.4494 68.1954 13.7221 68.0396 13.9559C67.8447 14.2286 67.611 14.2675 67.3383 14.4234C67.0655 13.9948 66.9097 13.7611 66.4032 13.6442C65.9746 13.5273 65.1565 13.4104 64.7279 13.5273C64.1435 13.7221 63.598 13.9559 62.9746 13.9948C62.5461 14.0338 62.1954 14.1896 61.7669 14.2675C61.5331 14.3455 60.676 14.3455 60.676 14.5792C60.0915 14.4623 59.5461 14.813 59.0786 15.1636C58.2604 15.7091 56.702 17.8519 56.1955 18.6701C55.7279 19.4493 55.3383 20.2285 54.8708 21.0078C54.637 21.3974 54.0916 22.6052 54.637 23.1116C54.8708 23.3454 55.6111 23.5013 55.9227 23.4623C56.3903 23.3844 56.9747 23.1506 57.4422 22.9558C58.5721 22.4883 59.7019 22.0987 60.7928 21.5922C61.4552 21.2805 61.1825 21.3974 61.8058 21.0078C61.9617 20.8909 62.5461 20.4233 62.0785 21.3974C61.9227 21.7091 62.7409 21.4753 62.585 21.5532C62.2344 21.748 62.3513 21.6701 62.0006 21.8649C61.611 22.0987 61.1435 22.2155 60.7149 22.4104C60.3643 22.5662 59.9747 22.8 59.624 22.9948C59.1565 23.1896 58.689 23.3454 58.2604 23.5792C57.9877 23.735 57.7929 23.9688 57.4812 24.1246C57.0916 24.3194 56.663 24.4363 56.2734 24.6311C56.0007 24.748 55.7279 24.9038 55.4162 25.0207C55.1435 25.1376 54.8318 25.2155 54.5591 25.2155C54.2474 25.2155 53.9357 25.0207 53.663 25.0207C53.663 25.1376 53.702 25.2545 53.7799 25.3714C53.3513 25.3714 52.8448 25.2545 52.4942 24.9428C52.2604 24.709 52.1046 24.3194 51.9877 24.0077C51.8319 23.6571 51.9487 23.3064 51.9877 22.9558C52.0267 22.3324 52.2215 22.1766 52.3773 21.6311C52.5331 21.2026 52.7669 20.735 53.0007 20.3844C53.1565 20.1117 53.2734 19.8779 53.4682 19.6052C53.9357 18.9039 54.4033 18.2415 54.9098 17.5402C55.1046 17.2675 56.2344 15.7481 56.2344 15.4364C55.9227 15.3974 55.4552 15.5922 55.2604 15.3195C55.0656 15.0468 55.1825 14.813 55.2994 14.6182C55.3773 14.4623 55.4162 14.4623 55.4552 14.3065C55.5331 14.1507 55.4942 14.0727 55.6111 13.9559C55.8059 13.7221 56.0396 13.7221 56.3123 13.6831C56.9357 13.6052 57.7149 13.6052 58.1435 13.2156C58.2993 13.0598 58.9617 12.2805 59.3123 11.852C59.7409 11.3065 60.1305 10.7611 60.637 10.3325C60.9487 10.0598 61.2214 9.74809 61.4941 9.4364C61.7669 9.12472 62.0006 8.73511 62.3123 8.46238C63.1305 7.72213 64.0655 7.05979 64.4941 6.00785" fill="#EFEFEF"/>
<path d="M89.3512 23.774C89.4291 23.4623 89.4681 23.2675 89.6239 22.9948C89.8577 22.6441 90.0135 22.2545 90.2083 21.9039C90.7148 20.8909 91.572 20.0338 92.2343 19.1377C92.7408 18.3974 93.3642 17.5013 94.3382 17.5013C94.6888 17.5013 94.8057 17.4234 95.0395 17.2675C95.2732 17.1117 95.546 16.9948 95.7018 17.2675C95.8187 17.5013 95.6628 17.6571 95.507 17.852C95.2732 18.0857 95.1564 18.3584 94.9615 18.5922C94.533 19.1377 94.0265 19.6052 93.6758 20.1896C93.4421 20.5792 93.1694 20.9688 92.8966 21.3584C92.6629 21.7091 92.6239 22.0597 92.4681 22.4104C92.3512 22.6831 92.1953 22.9948 92.0005 23.2285C91.7668 23.5013 91.7278 23.3065 91.3772 23.3844C91.1044 23.4623 90.8317 23.6961 90.559 23.774C90.3642 23.8519 90.3252 23.8909 90.0914 23.8519C89.9356 23.8519 89.8187 23.813 89.7018 23.8909L89.6629 23.6961" fill="#EFEFEF"/>
<path d="M97.1823 12.7091C96.8706 12.7091 96.4031 12.9039 96.0914 13.0208C95.7408 13.1377 95.6239 13.2546 95.4291 13.6052C95.3511 13.8 95.1174 13.9948 95.0784 14.2286C95.0395 14.4623 95.2732 14.8909 95.3901 15.1247C95.468 15.3195 95.6239 15.6701 95.8966 15.6701C96.0524 15.6701 96.0135 15.5922 96.1693 15.5143C96.3641 15.3584 96.4421 15.3974 96.7148 15.3195C97.2992 15.2026 98.1563 14.8909 98.0005 14.2286C97.9226 13.7221 97.7278 12.8649 97.1823 12.7091Z" fill="#EFEFEF"/>
<path d="M41.2346 19.3714C41.0008 19.2156 40.3385 19.4883 40.1826 19.6441C39.9099 19.8779 39.3255 20.1896 39.0138 20.3454C38.4684 20.6182 38.3125 20.8519 37.5723 21.5532C37.1047 22.0207 35.7411 23.5402 35.7021 23.5402C35.5463 23.5792 35.2346 22.5662 35.0009 22.6052C34.8061 22.6052 34.8061 22.722 34.5333 22.722C34.2996 22.722 34.2996 22.5662 34.2996 22.3714C34.2996 21.9428 34.7281 21.6311 34.9619 21.2805C35.2736 20.8519 35.7021 20.4623 36.0528 20.2285C36.6762 19.8 37.1827 19.2935 37.5333 18.6701C37.845 18.0857 38.3904 17.6182 38.7021 16.9948C38.8969 16.6052 39.2086 16.2156 39.4034 15.787C39.5982 15.4364 39.832 15.4364 40.2216 15.3584C40.4554 15.2805 40.7671 15.3974 41.0008 15.3195C41.1956 15.2805 41.5073 14.774 41.7411 15.1247C41.9359 15.4364 41.3904 16.3714 41.2346 16.6442C40.9229 17.2675 40.6502 17.0338 40.2995 17.5792V17.6182C40.5723 17.5403 40.1437 18.1636 40.0268 18.3974C40.4164 18.2805 40.7281 18.0467 41.0787 17.8909C41.4683 17.6961 41.9748 17.5792 42.3644 17.3454C42.832 17.1117 43.2605 17.1117 43.7281 16.9558C44.0398 16.8779 44.2735 16.6831 44.5073 16.9948C44.9359 17.5792 43.9229 18.3584 43.7281 18.8649C43.4164 19.5662 43.0268 20.3065 42.6372 21.0078C42.2865 21.7091 42.0528 22.1766 42.0917 22.9558C42.0917 23.1896 42.3255 23.5402 42.2865 23.774C42.2086 24.0077 41.4683 23.8909 41.2346 23.8909C41.2346 24.0857 41.1177 24.0857 40.9619 24.0077C40.845 23.9688 40.806 23.8129 40.6891 23.774H40.4943C40.3774 23.735 40.2995 23.6571 40.1826 23.5792C40.0658 23.5013 39.9878 23.3064 39.871 23.2285C39.5593 22.9948 39.4813 22.3324 39.5982 21.9818C39.6762 21.748 39.7541 21.5922 39.871 21.3584C40.0268 21.0467 40.3385 20.735 40.5333 20.4234C40.7671 20.0337 41.3125 19.4883 41.0398 19.1766" fill="#EFEFEF"/>
<path d="M77.1565 19.3714C76.9227 19.2156 76.2993 19.4883 76.1045 19.6441C75.8318 19.8779 75.2474 20.1896 74.9357 20.3454C74.3902 20.6182 74.2344 20.8519 73.4941 21.5532C73.0266 22.0207 72.0136 24.4363 71.7409 23.1506C71.663 22.8779 71.663 23.5402 71.624 23.5402C71.4682 23.5792 71.1565 22.5662 70.9227 22.6052C70.7279 22.6052 70.7279 22.722 70.4552 22.722C70.2214 22.722 70.2214 22.5662 70.2214 22.3714C70.2214 21.9428 70.65 21.6311 70.8838 21.2805C71.1955 20.8519 71.624 20.4623 71.9747 20.2285C72.598 19.8 73.1045 19.2935 73.4552 18.6701C73.7669 18.0857 74.3123 17.6182 74.624 16.9948C74.8188 16.6052 75.1305 16.2156 75.3253 15.787C75.5201 15.4364 75.7539 15.4364 76.1435 15.3584C76.4162 15.2805 76.6889 15.3974 76.9227 15.3195C77.1175 15.2805 77.4292 14.774 77.663 15.1247C77.8578 15.4364 77.3123 16.3714 77.1565 16.6442C76.8448 17.2675 76.572 17.0338 76.2214 17.5792V17.6182C76.4941 17.5403 76.0656 18.1636 75.9487 18.3974C76.3383 18.2805 76.65 18.0467 77.0006 17.8909C77.3902 17.6961 77.8967 17.5792 78.2863 17.3454C78.7538 17.1117 79.1824 17.1117 79.6499 16.9558C79.9616 16.8779 80.1954 16.6831 80.4292 16.9948C80.8577 17.5792 79.8837 18.3584 79.6499 18.8649C79.3383 19.5662 78.9487 20.3065 78.5591 21.0078C78.2084 21.7091 77.9746 22.0987 77.8188 22.8779C77.7409 23.3064 78.7928 23.3064 78.7539 23.5402C78.6759 23.774 78.7539 23.8909 77.1565 23.8909C77.1565 24.0857 77.0396 24.0857 76.8837 24.0077C76.7669 23.9688 76.7279 23.8129 76.65 23.774H76.4941C76.3772 23.735 76.2993 23.6571 76.1824 23.5792C76.0656 23.5013 75.9876 23.3064 75.8708 23.2285C75.5591 22.9948 75.4811 22.3324 75.598 21.9818C75.6759 21.748 75.7539 21.5922 75.8708 21.3584C76.0266 21.0467 76.3383 20.735 76.4941 20.4234C76.7279 20.0337 77.2733 19.4883 77.0006 19.1766" fill="#EFEFEF"/>
<path d="M61.7668 21.0857C61.9227 20.9688 62.9357 20.2286 62.4292 21.2026C62.2733 21.5143 62.6629 21.5532 62.5071 21.6312" fill="#EFEFEF"/>
<path d="M93.9096 23.8909C93.9096 23.774 93.8317 23.6961 93.8706 23.5792C93.8706 23.4623 93.9486 23.3844 93.9875 23.2675C94.0655 22.9948 94.0655 22.9558 94.3382 22.761C95.0395 22.2935 95.546 21.6701 96.1304 21.0857C97.0654 20.1506 97.8446 19.1377 98.5459 18.0468C98.7018 17.774 98.7407 17.4623 98.9355 17.1896C99.0524 16.9948 99.2083 16.761 99.3252 16.6052C99.52 16.4104 99.7927 16.2156 100.065 16.1377C100.377 16.0598 100.65 15.8649 100.962 15.787C101.234 15.7091 101.468 15.6312 101.624 15.9039C101.78 16.1766 101.663 16.4883 101.468 16.7221C101.195 17.1117 100.884 17.4623 100.65 17.8519C100.572 17.9688 100.533 18.0468 100.455 18.1636C100.65 18.2805 101.234 17.8909 101.429 17.813C101.819 17.6571 102.169 17.3844 102.52 17.2286C102.793 17.1117 103.143 16.9559 103.416 16.8779C103.572 16.839 103.728 16.839 103.806 16.9559L103.845 17.1896L104 17.3065C104.351 17.7351 104.039 18.3195 103.884 18.748C103.65 19.4883 103.26 20.1896 103.026 20.9299C102.949 21.2026 102.871 21.6311 102.949 21.9039C103.065 22.3324 103.611 22.4493 104.039 22.4883C104.312 22.5272 104.702 22.4104 104.974 22.3324C105.52 22.2156 106.065 22.0208 106.611 21.8649C107.858 21.5143 108.948 21.0467 110.078 20.5013C110.507 20.2675 110.974 20.0338 111.403 19.839C111.598 19.761 112.026 19.4104 112.26 19.4493C112.611 19.5273 112.455 20.0338 112.299 20.1896C112.026 20.4623 111.52 20.6182 111.169 20.813C110.858 21.0078 110.585 21.2415 110.273 21.3974C109.728 21.7091 109.143 21.9039 108.598 22.1766C108.013 22.4883 107.468 22.9169 106.845 23.1506C106.299 23.3454 105.637 23.5402 105.091 23.6961C104.234 23.8909 103.377 24.2026 102.481 24.2805C102.208 24.3194 102.091 24.1246 101.819 24.1636L101.663 24.1246L101.624 24.2415C101.468 24.3194 101.273 24.3974 101.039 24.3194C100.611 24.2026 100.221 23.735 100.221 23.3454C100.182 22.722 99.9485 22.3714 100.221 21.826C100.494 21.2026 100.884 20.4623 101.156 19.839C101.234 19.7221 101.351 19.3325 101.195 19.2156C101 19.0597 100.611 19.3325 100.494 19.4493C99.9096 19.8779 99.0524 20.4234 98.507 20.9299C98.0005 21.3974 97.6498 22.0208 97.2213 22.5662C97.0265 22.8389 96.9096 22.9558 96.5979 22.9558C96.2862 22.9948 96.2473 23.0337 96.0135 23.2675C95.7408 23.5402 95.4291 23.813 95.0784 23.9688C94.7278 24.1246 94.0655 24.2415 93.7927 23.8909" fill="#EFEFEF"/>
<path d="M103.728 9.47537C104.156 8.77407 101.897 9.28057 101 9.20264C99.481 9.08576 90.9875 10.0987 91.4551 9.51433C91.494 9.0468 92.468 8.22862 92.4291 7.80005C93.0914 7.13772 93.6369 6.39747 94.1044 5.69617L94.494 5.15072L94.7278 5.0728C94.8447 4.48839 95.7018 4.13774 96.0914 3.59229C96.1693 3.47541 96.2472 3.35852 96.2472 3.24164C96.52 3.0858 96.7927 2.96891 96.9096 2.77411C97.1433 2.42346 97.2213 2.07282 97.5329 1.72217C97.3771 1.64425 97.4161 1.44944 97.494 1.2936L97.6498 1.0988C97.6888 0.826071 96.8317 0.280619 96.481 0.202698C95.5459 0.202698 93.0135 4.64423 91.4161 5.65721C90.7148 6.70915 89.4291 8.852 88.2603 9.90394C87.7538 10.0208 86.4681 10.1377 86.0395 10.3715L86.1564 10.9559C85.7668 11.5013 86.2343 11.6182 86.1564 12.1247L86.4681 12.0468L87.0915 12.2026C87.0915 12.4754 86.3902 13.2156 86.1564 13.5663C85.7278 14.1896 85.0655 14.813 84.598 15.4753C84.4811 15.6701 84.4032 15.8649 84.3642 16.0987C81.2863 20.735 79.0655 24.9038 78.7538 29.0337C78.7149 29.6181 79.572 29.7739 80.4292 29.8519C82.1824 30.0077 83.2733 28.9947 84.8317 27.8649C84.9486 27.6311 85.2993 27.5142 85.4551 27.2805L85.4161 27.0467C85.7278 27.0077 85.8837 26.735 86.0395 26.5402L86.1174 26.3844C87.0915 25.6051 87.9096 24.6701 88.533 23.735C88.6499 23.5402 89.4681 22.2155 89.1174 22.1766L88.8837 22.1376C88.494 22.5662 87.9486 22.8779 87.52 23.2675C87.2863 23.6571 86.6629 24.0467 86.4681 24.4363L86.3512 24.5922C85.3772 25.2935 83.4291 27.5532 82.2214 27.4363C81.559 27.3584 81.8707 26.5012 81.559 26.1116C82.7278 23.2285 84.4421 20.1896 85.572 18.3195C85.2213 18.2805 88.6499 14.1117 89.7408 12.4364L89.8577 12.3585C89.9356 12.2805 90.0525 12.1637 90.0914 12.0468L90.2473 11.7741C90.4421 11.6572 90.9096 11.813 91.1434 11.813H91.2603C91.7667 11.7351 92.3512 11.6572 93.0135 11.5793C93.2473 11.5013 93.4421 11.4624 93.6758 11.4234C94.4161 11.3844 95.1174 11.3455 95.8576 11.2676C97.455 11.1117 99.0914 11.2676 100.689 11.0728C101.039 11.0338 101.312 10.9169 101.624 10.8C101.78 10.7611 101.897 10.6832 102.052 10.7221C102.247 10.7611 102.481 11.0338 102.598 11.2676C103.026 11.0338 103.767 10.8 104 10.4494C104.273 9.90394 103.767 9.90394 103.728 9.47537Z" fill="#EFEFEF"/>
<path d="M53.1565 13.5273C52.9228 13.4494 53.0007 13.0598 52.8059 13.0598C52.4163 13.2156 52.65 12.7091 50.5072 13.4494C50.3903 13.5273 49.1825 13.4494 49.0657 13.5663C48.7929 13.7611 48.676 14.0727 48.4033 14.2286C47.8968 14.5403 47.5072 15.0857 47.0397 15.4364L46.8838 15.5922C46.5722 16.1766 46.1046 16.6442 46.1046 17.2675C46.1046 17.5403 46.1436 17.8909 46.2215 18.3195L46.2605 18.3584C46.5722 18.7091 46.4942 19.0987 46.4942 19.5273C46.6111 20.0727 46.767 20.6182 46.8449 21.1636V21.2026C46.8838 21.4753 47.3514 22.1376 47.3514 22.4493C46.8449 22.2935 48.0527 24.2026 46.4942 26.2285C45.7929 27.1636 42.5592 28.5272 40.9618 28.1376C40.5332 28.0207 40.4553 27.5532 40.3384 27.2025C40.4553 26.8908 40.0267 26.735 40.2605 26.3844L39.754 26.1506C39.2086 27.2415 38.741 28.3714 39.1696 29.4233C39.4034 29.6571 39.7151 29.8129 40.0657 29.8908C40.3384 29.9688 40.6501 30.0077 40.9618 30.0077C40.9228 30.1246 40.767 30.1636 40.806 30.2804C40.8839 30.4363 41.2735 30.3194 41.3514 30.2804C41.6241 30.1636 41.9358 30.2025 42.2865 30.1636C42.5982 30.1246 42.9098 29.9298 43.2215 29.8908C43.4553 29.8519 43.728 29.8519 43.9618 29.8519C44.2345 29.8129 44.3904 29.7739 44.6241 29.6181C44.78 29.5402 44.8968 29.5012 45.0137 29.4233L45.2475 29.2675C45.4423 29.1506 45.6371 28.9947 45.8709 28.9168C46.2215 28.761 46.6111 28.683 46.9228 28.4103C47.741 27.9818 48.5202 27.3584 48.8319 26.9298C49.6111 25.6831 49.2215 25.4883 49.2215 24.2415C50.0007 22.2156 46.9618 18.0467 48.2864 15.9429C48.754 15.2416 50.4682 13.6052 50.6241 14.4234C50.8578 14.3844 52.0656 14.3844 52.4163 14.9688C52.728 15.3195 52.4552 15.3585 52.9617 15.4753C53.3124 15.2026 53.7799 15.3585 54.0137 14.9688C54.4812 14.3844 53.8189 13.7221 53.1565 13.5273Z" fill="#EFEFEF"/>
<path d="M138.792 20.1506C138.948 19.7221 138.987 19.3325 138.87 18.9818C139.416 17.5013 139.065 16.0598 138.247 15.1247L138.364 15.0078C135.403 11.4234 132.286 8.03383 127.766 5.81306C126.247 5.03384 124.377 3.5923 122.507 3.39749C121.844 4.29359 121.533 2.891 120.559 5.61826C120.052 7.02085 123.87 8.30655 125 8.96889C125.117 9.20265 125.857 9.20265 125.779 9.47538L125.663 9.70914C125.663 9.90394 125.468 10.0987 125.234 10.0987L125.195 10.2156L124.883 10.2546L124.805 10.5273L124.455 10.878C123.987 11.9689 123.403 13.1377 122.351 13.9948C122.312 14.3844 117.325 24.2415 116.663 25.9948C116.195 26.3064 115.572 26.5402 115.065 26.5402C114.909 26.5402 114.715 26.5012 114.598 26.4233C113.429 26.4233 113.896 27.5921 113.273 28.0207C113.546 28.3714 113.546 29.0727 113.974 29.2675C115.728 28.6441 115.416 30.5532 116.741 30.5532C117.909 30.5532 117.676 30.1636 118.299 30.0077L118.611 29.4233C120.442 29.1116 122.896 29.4623 124.611 28.3324C128.507 27.787 137.39 24.0857 138.792 20.1506ZM135.52 19.8C135.052 21.0857 133.338 21.748 132.208 22.6441C131.039 22.9948 129.909 23.9688 128.702 23.9688C125.896 25.2545 122.857 25.6831 120.13 25.8389L120.559 24.5532C121.533 21.4363 123.52 18.3974 125 15.3195C125.234 15.2416 125.39 15.0857 125.429 14.9299C125.507 14.6961 125.546 14.4234 125.818 14.2676C126.442 13.3325 127.416 12.4754 127.766 11.4624C127.805 11.2676 127.844 11.0728 127.844 10.839C130.026 12.2026 136.611 16.7221 135.52 19.8Z" fill="#EFEFEF"/>
<path d="M44.1566 33.0856C43.2605 33.0077 42.8709 33.8648 41.9748 34.0986C40.3774 34.8388 39.4813 34.0986 37.9618 34.0986C30.2476 34.0207 12.2867 24.9428 10.8062 21.2415C10.027 20.9298 8.93605 23.6181 8.74125 23.9688C7.37762 26.5792 6.4036 29.1506 5.07893 31.7609C4.76725 32.3843 3.63738 34.4103 3.20881 34.8778C2.78024 35.3453 2.03999 35.2285 1.7283 35.7739H1.37766C0.871166 35.7739 0.325715 35.5401 0.0919499 35.1895C-0.804148 34.1376 5.11789 23.1896 6.2088 21.0857C8.97501 15.787 12.1698 10.5273 16.2996 5.42344C16.3386 5.2676 16.3776 4.99488 16.4944 4.80007C17.0789 3.63125 18.2866 2.50138 19.4944 1.72217C19.962 1.64425 20.3905 1.60529 20.7801 1.60529C22.1048 1.60529 22.0658 2.92995 21.5204 3.98189C21.2087 4.56631 20.7412 5.18968 20.4684 5.81305C19.884 5.92993 19.6503 6.74811 19.4944 7.09876C18.6373 7.48837 18.6763 8.42343 17.7412 8.92992L17.7022 9.08576C17.5464 9.35849 17.5074 9.47537 17.0789 9.67017C16.8061 11.0728 14.1568 13.6442 13.5724 15.0078L13.4945 15.2416C17.4295 14.852 21.4425 12.1247 25.1048 9.9429C25.2996 9.43641 26.3126 9.12472 26.5463 8.57927C26.9749 8.50135 27.7541 8.46239 27.832 8.1507C28.884 7.2546 30.9879 5.77409 32.1177 5.77409C33.0528 6.3585 33.4814 9.00784 32.3904 8.26758C32.0788 8.03382 34.1437 7.9559 25.7671 12.826C23.936 13.8779 21.7152 15.1247 20.0009 16.2935H19.6113C19.1438 16.4494 18.5204 16.761 18.1698 17.1506C17.3905 17.3844 14.975 18.6312 15.2087 18.6312C15.0139 21.5922 32.819 29.2675 38.0008 30.9428L37.9229 31.0986C39.9099 31.6051 41.5073 32.3064 43.9618 32.1116C44.1177 32.3064 44.6241 32.5012 44.4293 32.8908C44.3904 32.9298 44.2735 33.0467 44.1566 33.0856Z" fill="#EFEFEF"/>
<path d="M47.2735 22.2935H47.3904H47.2735ZM50.702 14.3844C50.6631 14.2675 50.5852 14.1896 50.5072 14.1507C49.9618 14.0338 48.6371 15.3584 48.2475 15.9429C47.5072 17.1117 48.0917 18.8649 48.6371 20.5792C49.1046 22.0207 49.5332 23.3454 49.1826 24.2415L49.2215 25.1376C49.2994 25.722 49.3384 26.0727 48.754 26.9298C48.4813 27.3584 47.7021 27.9818 46.9228 28.4103L46.1826 28.761L45.8709 28.8778L45.2475 29.2285L45.0527 29.3843L44.6631 29.5791L44.0397 29.7739H43.806L43.2605 29.8129L42.3255 30.0856H41.9748L41.3514 30.1636C41.2346 30.2025 40.9618 30.2804 40.9229 30.2025L41.0787 30.0077V29.9688V29.9298L41.0008 29.8908L40.1047 29.7739C39.754 29.6571 39.4813 29.5402 39.2476 29.3064C39.1307 29.0337 39.0917 28.761 39.0917 28.4882C39.0917 27.748 39.4424 26.9688 39.832 26.2285C39.9099 26.2675 40.0268 26.3064 40.1437 26.3064L40.1047 26.4623C40.1047 26.5792 40.1437 26.696 40.1826 26.774L40.2605 26.9688V27.0467L40.2995 27.2025C40.3774 27.5532 40.5333 28.0207 40.9618 28.0986C42.6371 28.4882 45.8709 27.1246 46.5722 26.1506C47.6241 24.787 47.4293 23.4623 47.3514 22.8L47.3124 22.4104H47.4293L47.4683 22.3324L47.1566 21.5922L46.9228 21.0857L46.5332 19.3714V19.1766C46.5332 18.826 46.5722 18.4753 46.2605 18.1636L46.1436 17.1506C46.1436 16.7221 46.3774 16.3714 46.6501 15.9818L46.9228 15.5143L47.0787 15.3974L47.5852 14.9299L48.4033 14.2286L48.793 13.8779L49.1046 13.5663L49.728 13.5273C50.3124 13.5273 50.4683 13.5273 50.5462 13.4494C51.9488 12.9818 52.2994 13.0598 52.4942 13.0987H52.8449C52.8449 13.0987 52.8449 13.1377 52.8838 13.2546C52.9228 13.3714 52.9618 13.5273 53.1176 13.5663C53.5462 13.6831 53.8968 13.9948 54.0527 14.3455C54.1306 14.5792 54.0916 14.774 53.9747 14.9688C53.8579 15.1636 53.6631 15.2026 53.4293 15.2416L52.9228 15.4364C52.728 15.3584 52.728 15.3195 52.689 15.2416L52.4942 14.9299C52.1436 14.3455 51.0137 14.3455 50.702 14.3844ZM52.3773 15.0468L52.5332 15.3195C52.5722 15.4753 52.6501 15.5143 52.9618 15.6312L53.4682 15.4753C53.702 15.4364 53.9358 15.3584 54.1306 15.1247C54.2864 14.8909 54.3254 14.6182 54.2085 14.3455C54.0527 13.9559 53.6241 13.6052 53.1566 13.4494C53.0786 13.4494 53.0786 13.3714 53.0397 13.2546C53.0007 13.1377 52.9618 12.9429 52.767 12.9429H52.4942C52.2605 12.9039 51.9098 12.787 50.3903 13.2935L49.6501 13.3325L48.9098 13.4104L48.5592 13.7611L48.2475 14.0727L47.3514 14.813L46.8839 15.2805L46.767 15.3974L46.4163 15.9429C46.1436 16.3325 45.9099 16.7221 45.9099 17.2286L46.0267 18.2805C46.2605 18.5532 46.2995 18.787 46.2995 19.0208V19.2156V19.4493L46.3384 19.6831L46.6501 21.1246L46.8839 21.7091C46.8839 21.7091 47.0787 22.2156 47.1176 22.3324H47.0787C47.0397 22.3714 47.0008 22.4493 47.0008 22.5272C47.0008 22.6052 47.0008 22.722 47.0397 22.8779C47.0787 23.1116 47.1176 23.3844 47.1176 23.735C47.1176 24.3974 46.9618 25.2545 46.2995 26.1116C45.6371 27.0077 42.4423 28.3714 40.8839 27.9817C40.5333 27.9038 40.4553 27.5532 40.3385 27.2025L40.2995 27.0857C40.3774 26.9688 40.2995 26.8129 40.2216 26.696C40.1437 26.5792 40.1047 26.5012 40.1826 26.3454V26.2675L40.1047 26.1896L39.6372 26.0337L39.5203 26.0727C39.1307 26.8519 38.7411 27.6701 38.7411 28.4882C38.7411 28.7999 38.78 29.1116 38.9359 29.4233C39.2086 29.696 39.5203 29.8519 39.8709 29.9688C39.8709 29.9688 40.3774 30.0467 40.6501 30.0856L40.5722 30.2415L40.6112 30.3194C40.7281 30.5532 41.1956 30.4363 41.3125 30.3973L41.8579 30.3194H42.2086L42.7151 30.1636L43.1436 30.0077L43.6891 29.9688H43.9229L44.6241 29.735L45.0138 29.5402L45.1306 29.4623L45.8319 29.0337L46.1436 28.9168L46.9228 28.5272C47.741 28.0986 48.5592 27.4753 48.8319 27.0077C49.4163 26.0727 49.3774 25.722 49.2994 25.0986L49.2605 24.2805C49.6111 23.3454 49.1826 21.9818 48.715 20.5402C48.1696 18.8649 47.6241 17.1506 48.3254 16.0597C48.754 15.4364 50.0007 14.2675 50.3514 14.3455C50.3903 14.3455 50.4293 14.3455 50.4293 14.5013L50.4683 14.5792H50.5462C50.9358 14.5013 52.0657 14.5403 52.3773 15.0468ZM88.3382 23.6181C87.7538 24.5142 86.8966 25.4493 85.9616 26.2285L85.8447 26.4233C85.6888 26.6181 85.5719 26.8129 85.2992 26.8908L85.2213 26.9688L85.2603 27.0467L85.2992 27.1246V27.1636L85.0265 27.3973L84.6759 27.748L84.1304 28.1376C82.8447 29.0727 81.8317 29.8519 80.3512 29.696C79.6499 29.6181 78.7538 29.4623 78.7928 28.9558C79.1434 24.5142 81.6759 20.1506 84.4031 16.0597L84.6369 15.4364L86.1953 13.5273L86.507 13.0987C86.8577 12.6702 87.1304 12.3195 87.1304 12.0857L87.0525 12.0078L86.468 11.852C86.4291 11.852 86.3122 11.8909 86.1953 11.8909C86.1564 11.7351 86.1174 11.5013 86.1174 11.5013C86.0784 11.4234 86.0395 11.3455 86.0395 11.2676C86.0395 11.1507 86.0784 11.0728 86.1953 10.9169V10.878C86.1953 10.7611 86.1564 10.4494 86.1174 10.3325C86.4291 10.2156 87.0135 10.0987 87.52 10.0208L88.2602 9.90394C89.3122 9.00784 90.4031 7.29356 91.1433 6.1637L91.494 5.65721C92.2342 5.18968 93.2472 3.90397 94.1823 2.65723C95.0784 1.4884 96.0135 0.241659 96.481 0.241659C96.7147 0.280619 97.2991 0.592306 97.494 0.865031L97.5329 1.02087L97.416 1.17672C97.3381 1.2936 97.2991 1.37152 97.2991 1.4884V1.60529L97.3771 1.68321C97.2991 1.80009 96.9875 2.26762 96.9875 2.26762L96.7927 2.65723C96.6758 2.85203 96.442 2.96891 96.1693 3.0858L96.1303 3.16372L96.0134 3.43644L95.3511 4.09878C95.0005 4.3715 94.6888 4.64423 94.6109 4.99488L94.455 5.03384L94.1433 5.50137L94.0654 5.61825C93.5979 6.31954 93.0914 7.0598 92.3901 7.72213C92.3901 7.99486 92.1174 8.3455 91.8836 8.61823C91.6498 8.92992 91.4161 9.2416 91.3771 9.47537V9.59225C91.533 9.86498 92.8576 9.78706 96.8316 9.47537C98.6628 9.31952 100.416 9.20264 101 9.2416L102.169 9.20264C102.715 9.16368 103.572 9.08576 103.65 9.2416V9.28056L103.611 9.39745L103.572 9.43641L103.728 9.82602C103.767 9.90394 103.845 9.9429 103.845 10.0598C103.845 10.1377 103.806 10.2546 103.689 10.4104C103.533 10.6052 103.182 10.8 102.832 10.9559C102.832 10.9559 102.52 11.1117 102.403 11.1896C102.286 10.9559 102.052 10.7221 101.858 10.6442L101.468 10.7221L100.455 10.9948L97.9615 11.1117L95.6238 11.1896L93.442 11.3455L92.7407 11.5013L90.9875 11.7351C90.9096 11.7351 90.5979 11.6961 90.5979 11.6961H89.9745L89.8187 11.8909L89.6239 12.1637L89.546 12.2416L89.4291 12.2805L87.3641 15.0468C85.6109 17.3454 85.1044 18.0857 85.1823 18.2415C84.0135 20.1506 82.3382 23.1506 81.2083 25.9558C81.2083 26.0337 81.3642 26.5792 81.3642 26.5792C81.4031 26.9298 81.4421 27.3584 81.9486 27.4363C82.8447 27.5142 84.0914 26.3844 85.1044 25.4493L86.1564 24.5532L86.2732 24.3584L86.7797 23.8129L87.3252 23.1896L87.7927 22.8389L88.6499 22.0987L88.8057 22.1376V22.1766C89.0005 22.4104 88.7667 22.9168 88.3382 23.6181ZM108.559 9.51433L108.52 9.55329L108.559 9.51433ZM89.0005 22.0207L88.7667 21.9818L87.8317 22.722L87.3252 23.1116L86.7797 23.6961L86.2343 24.2805L86.1174 24.4363L85.0655 25.3324C84.0914 26.2285 82.8837 27.3584 82.0655 27.2415C81.7148 27.2025 81.6759 26.9688 81.6369 26.5792L81.4421 25.9558C82.572 23.2285 84.2473 20.2675 85.4551 18.2805C85.4551 17.9688 86.6239 16.4104 87.5979 15.1636L89.6239 12.4364L89.7408 12.3974L89.8187 12.3195L90.0135 12.1247L90.1693 11.8909L90.6369 11.9299L90.9875 11.9689H91.1044L92.8576 11.7351L93.52 11.5793L95.7018 11.4234L98.0394 11.3455L100.572 11.2676L101.546 10.9948L101.897 10.9169C102.052 10.9559 102.247 11.1896 102.364 11.4234L102.403 11.4624H102.481L102.987 11.2286C103.377 11.0728 103.767 10.878 103.922 10.6442C104.039 10.4494 104.117 10.2935 104.117 10.1767C104.117 10.0598 104.039 9.9429 103.961 9.82602L103.845 9.55329L103.884 9.39745L103.845 9.28056C103.689 9.0468 103.104 9.0468 102.169 9.12472L101.039 9.16368C100.416 9.12472 98.6628 9.2416 96.8316 9.39745C94.6888 9.55329 91.7667 9.78705 91.533 9.59225C91.5719 9.39745 91.8057 9.08576 92.0394 8.81303C92.3122 8.46239 92.5849 8.11174 92.5459 7.83901C93.2083 7.2546 93.7148 6.51435 94.1823 5.77409L94.2602 5.65721L94.5329 5.2676L94.7277 5.18968C94.8446 4.83903 95.1563 4.56631 95.468 4.33254L96.1303 3.67021C96.1693 3.63125 96.2472 3.43644 96.2472 3.31956C96.5199 3.20268 96.7537 3.04684 96.9095 2.81307L97.1433 2.42346L97.5329 1.80009V1.72217V1.64425L97.494 1.56633L97.455 1.52737V1.4884L97.5329 1.2936L97.6498 1.0988L97.5719 0.78711C97.3381 0.475423 96.7147 0.124776 96.4031 0.0858154C95.8576 0.0858154 94.9615 1.25464 93.9485 2.57931C93.0524 3.74813 92.0394 5.0728 91.2602 5.54033L90.9096 6.08578C90.2083 7.21564 89.1174 8.89096 88.1044 9.78705L87.4421 9.90394C86.8577 9.98186 86.2343 10.0987 85.9226 10.2546L85.8836 10.3325L86.0005 10.9169C85.7278 11.2286 85.8057 11.4234 85.9226 11.6182L86.0005 12.0468L86.0395 12.1247L86.1174 12.1637L86.4291 12.0857C86.4291 12.0857 86.7408 12.1637 86.8966 12.2026C86.8577 12.3974 86.5849 12.7481 86.3512 13.0208L86.0005 13.4494L84.4421 15.3584L84.1694 15.9818C81.4811 20.0337 78.9097 24.4363 78.559 28.9558V28.9947C78.559 29.6181 79.4941 29.8129 80.3122 29.8908C81.8707 30.0467 82.9616 29.2285 84.2083 28.2934L84.7927 27.8649L85.1044 27.5532L85.4551 27.2415L85.494 27.0857L85.4551 27.0077C85.7278 26.9298 85.8836 26.735 86.0005 26.5792L86.1174 26.3844C87.0914 25.6051 87.9486 24.6701 88.533 23.735C88.8057 23.3065 89.1953 22.6052 89.1953 22.2545L89.1563 22.1376L89.0005 22.0207ZM112.221 20.0337L111.481 20.4623L111.13 20.6182L110.234 21.2026L108.559 21.9818L107.974 22.3324L106.806 22.9558L105.052 23.5013L104.39 23.6571L102.481 24.0467L102.169 23.9688L101.858 23.8909L101.702 23.8519L101.624 23.9298L101.585 24.0467V24.0857L101.117 24.1246C100.728 24.0077 100.377 23.6181 100.338 23.2285L100.26 22.722C100.182 22.3714 100.143 22.1376 100.338 21.748L100.884 20.5792L101.273 19.761C101.429 19.4104 101.429 19.1376 101.273 19.0208C101 18.826 100.611 19.1376 100.455 19.2545L99.9485 19.6052L98.468 20.735L97.5719 21.8259L97.1823 22.3714C96.9875 22.6441 96.9095 22.722 96.5979 22.722C96.2862 22.761 96.1693 22.8389 95.9745 23.0337C95.7018 23.3065 95.429 23.5792 95.0784 23.735C94.7667 23.8519 94.2992 23.9298 94.0264 23.735V23.6181L93.9875 23.5013L94.0264 23.3454L94.1044 23.2285L94.4161 22.8L95.8576 21.5143L96.2082 21.1246C97.0654 20.2675 97.8056 19.2935 98.6238 18.0467L99.0134 17.1896L99.0913 17.0727L99.403 16.6052C99.5589 16.4104 99.8316 16.2545 100.104 16.1766L100.533 15.9818L101 15.787C101.312 15.7091 101.429 15.6701 101.546 15.826C101.663 16.0208 101.624 16.2545 101.39 16.5273L101 17.0338L100.533 17.6571L100.455 17.774L100.338 17.9688V18.0467L100.377 18.0857C100.572 18.2026 100.884 18.0467 101.273 17.8519L101.468 17.774L102.091 17.4234L102.559 17.1506L103.416 16.8C103.572 16.761 103.65 16.761 103.689 16.839L103.728 17.0727L103.845 17.1896C104.156 17.5403 104 17.9299 103.845 18.3195L103.767 18.5922L103.377 19.6052L102.948 20.774C102.871 21.0078 102.793 21.4753 102.871 21.8259C103.026 22.3324 103.611 22.4493 104.039 22.4883L104.819 22.3714L105.013 22.3324L106.065 22.0207L106.689 21.8259C108.013 21.4753 109.182 20.9298 110.156 20.4623L111.481 19.8L111.715 19.6441C111.87 19.5273 112.143 19.3325 112.26 19.3714L112.377 19.4883C112.416 19.7221 112.338 19.9558 112.221 20.0337ZM112.572 19.5273C112.533 19.4104 112.416 19.3325 112.299 19.2935C112.104 19.2545 111.832 19.4104 111.598 19.5662L111.403 19.6831L110.078 20.3454C109.104 20.813 107.935 21.3584 106.65 21.7091L105.987 21.8649L104.935 22.1376L104.741 22.1766L104.039 22.2935C103.611 22.2545 103.143 22.1766 103.026 21.787C102.948 21.4753 103.065 21.0078 103.104 20.8519L103.533 19.7221L103.922 18.6701L104 18.4364C104.156 18.0078 104.351 17.5403 104 17.1506L103.884 17.0727L103.845 17.0338L103.806 16.8C103.65 16.6052 103.416 16.6831 103.338 16.7221L102.442 17.0727L101.974 17.3455L101.351 17.6571L101.156 17.7351C101.039 17.813 100.767 17.9299 100.572 17.9688L100.689 17.813L101.117 17.2286L101.507 16.7221C101.663 16.4883 101.741 16.2935 101.741 16.1377C101.741 16.0208 101.702 15.9039 101.663 15.826C101.468 15.5533 101.234 15.6312 100.961 15.6701L100.416 15.8649L100.026 16.0208C99.7147 16.0987 99.442 16.2935 99.2472 16.4883L98.8965 16.9558L98.8186 17.0727L98.429 17.9299C97.6108 19.1766 96.8706 20.1117 96.0134 20.9688L95.6238 21.3584L94.2213 22.6441L93.8706 23.1506L93.7927 23.2675L93.7148 23.4623L93.7537 23.6181H93.7148L93.6758 23.6961V23.774C93.9485 24.1636 94.6888 24.0467 95.0784 23.8909C95.468 23.735 95.7407 23.4623 96.0524 23.1506C96.2472 22.9558 96.2862 22.9168 96.5589 22.8779C96.9485 22.8389 97.0654 22.722 97.2602 22.4493L97.6498 21.9039L98.5069 20.8519L99.9874 19.7221L100.494 19.3714C100.806 19.1376 101 19.0987 101.117 19.1376C101.195 19.2156 101.195 19.3714 101.078 19.6441L100.689 20.4234L100.143 21.5922C99.9485 22.0207 100.026 22.3324 100.065 22.6831L100.143 23.1506C100.182 23.6181 100.572 24.0857 101.039 24.2415L101.663 24.1246L101.702 24.0077L101.819 24.0467L102.091 24.2026L102.481 24.2805L104.429 23.8909L105.091 23.735L106.884 23.1896L108.091 22.5662L108.676 22.2156L110.351 21.4363L111.247 20.8519L111.559 20.6961L112.377 20.2285C112.494 20.0337 112.611 19.7221 112.572 19.5273ZM77.2343 23.8129L77.1564 23.9298V23.9688L77.0395 23.9298L76.8058 23.735H76.6889H76.6499L76.4941 23.6181L76.3772 23.5402L76.2214 23.3844L76.0655 23.1896C75.8707 23.0337 75.7538 22.722 75.7538 22.4104C75.7538 22.2545 75.7538 22.1376 75.8318 22.0207L76.1045 21.4363L76.4551 20.9298L76.7668 20.5013L76.9226 20.2675C77.1175 19.9948 77.3512 19.6441 77.3512 19.4104V19.3714L77.3123 19.3325L77.2733 19.2156L77.1564 19.1766L77.1175 19.2545C76.7668 19.2156 76.2993 19.4493 76.1434 19.5662L74.9746 20.2285C74.5071 20.4623 74.3123 20.6571 73.8058 21.1246L73.4551 21.4363L72.8707 22.2545C72.598 22.722 72.2084 23.3844 72.0136 23.3454C72.0136 23.3454 71.9357 23.3065 71.8577 23.0337L71.7409 22.8779C71.624 22.8779 71.624 22.9558 71.585 23.1896L71.5461 23.3065C71.5461 23.1896 71.4292 22.9948 71.4292 22.9948C71.2344 22.6052 71.1175 22.4104 70.9227 22.4104L70.6889 22.4883L70.4552 22.5272C70.3383 22.5272 70.3383 22.4883 70.3383 22.2935C70.3383 22.0207 70.5331 21.787 70.7279 21.5532L70.9617 21.2805C71.1954 20.9298 71.624 20.5402 72.0525 20.2285C72.7149 19.761 73.2214 19.2545 73.5331 18.6701L74.0785 17.8909L74.6629 17.0338L75.0525 16.3714L75.3642 15.8649C75.5201 15.5922 75.6369 15.5922 75.9097 15.5143L76.1045 15.4364H76.4941H76.9226L77.1564 15.2805L77.4291 15.1247L77.546 15.2026C77.7019 15.4364 77.2733 16.2156 77.1175 16.4883L77.0785 16.6052L76.6499 17.0727L76.1824 17.5403L76.2603 17.6571L76.0266 18.1247L75.9097 18.3584V18.4753L76.0266 18.5143L76.7278 18.2026L77.0785 18.0078L77.6239 17.813L78.4032 17.5013L79.2603 17.2286L79.7668 17.1117L79.9226 17.0338C80.1954 16.9558 80.3122 16.9169 80.4291 17.1117C80.6629 17.4623 80.3512 17.9299 80.0006 18.3195L79.6109 18.8649L78.7538 20.6182L78.52 21.0078C78.1694 21.6701 77.9356 22.1376 77.7798 22.8779C77.7019 23.2285 78.1304 23.3454 78.4421 23.4623L78.7148 23.5792C78.6759 23.735 78.6369 23.8519 77.2343 23.8129ZM78.9097 23.6571V23.5013L78.52 23.3065C78.2084 23.1896 77.9746 23.1116 78.0136 22.9558C78.1694 22.2155 78.4032 21.787 78.7538 21.1246L78.9876 20.6961L79.8447 18.9428L80.1954 18.4364C80.546 18.0078 80.9356 17.4623 80.6239 16.9948C80.3902 16.6831 80.1174 16.761 79.8837 16.8779L79.7278 16.9169L79.2213 17.0338L78.3252 17.3065L77.585 17.6182L77.0395 17.813L76.6889 18.0078C76.6889 18.0078 76.4551 18.1247 76.2603 18.2026C76.4162 17.9688 76.4941 17.774 76.4941 17.6961L76.4551 17.6182L76.8058 17.2675L77.3123 16.7221L77.3902 16.6052C77.7408 15.9818 78.0136 15.3974 77.8187 15.1247L77.585 14.9688L77.1564 15.1636L76.9616 15.2805H76.611H76.1824L75.9876 15.3195C75.7149 15.3974 75.4811 15.4364 75.3253 15.7481L75.0136 16.2935L74.624 16.9558L74.0396 17.774L73.4551 18.5922C73.1435 19.1376 72.6759 19.6441 72.0136 20.1117C71.8188 20.2675 71.2733 20.6571 70.8837 21.2026L70.65 21.4753C70.4162 21.7091 70.1824 21.9818 70.1824 22.3324C70.1824 22.4883 70.1824 22.761 70.4941 22.761L70.8058 22.6831L70.9617 22.6441C71.0396 22.6831 71.1954 22.9558 71.2733 23.1506C71.4292 23.4623 71.5071 23.6571 71.6629 23.6181C71.7409 23.5792 71.7409 23.5402 71.7798 23.3065C71.8188 23.4233 71.8967 23.5792 71.9746 23.6181C72.2863 23.6571 72.598 23.1506 73.0266 22.4104L73.572 21.6311L73.9227 21.3195C74.3902 20.8519 74.585 20.6571 75.0136 20.4623L76.2214 19.761C76.3772 19.6052 76.9226 19.4104 77.1175 19.4883C77.1175 19.6831 76.8837 19.9948 76.7278 20.2285L76.533 20.5013L76.2603 20.8909L75.9097 21.3974L75.6369 22.0207C75.598 22.1376 75.559 22.2935 75.559 22.4493C75.559 22.8 75.6759 23.1896 75.9097 23.3844L76.0266 23.5013L76.2214 23.735L76.3382 23.774L76.533 23.8909H76.6889H76.7278L77.0006 24.1246C77.1175 24.1636 77.2343 24.1636 77.3123 24.1246L77.3512 24.0077C78.7148 24.0077 78.8317 23.9298 78.9097 23.6571ZM37.806 21.1636L37.4554 21.4753L36.1307 22.8779L35.5852 23.4623L35.4294 23.0727C35.2346 22.6831 35.1177 22.4883 34.9229 22.4883L34.6891 22.5662L34.4943 22.6052C34.3775 22.6052 34.3775 22.5662 34.3775 22.3714C34.3775 22.0987 34.5723 21.8649 34.7671 21.6311L35.0008 21.3584C35.2736 21.0078 35.6632 20.6182 36.0917 20.3065C36.7541 19.8389 37.2606 19.3325 37.5722 18.748L38.1177 17.9688L38.7021 17.1117L39.0917 16.4494L39.4034 15.9429C39.5592 15.6701 39.6761 15.6701 39.9489 15.5922L40.1826 15.5143H40.5333H40.9618L41.1956 15.3584L41.4683 15.2026L41.7021 15.2416C41.8579 15.4753 41.4294 16.2545 41.2735 16.5273L41.2346 16.6442L40.806 17.1117L40.3385 17.5792L40.4164 17.6961L40.1826 18.1636L40.0657 18.3974V18.5143L40.1826 18.5532L40.8839 18.2415L41.2346 18.0467L41.78 17.8519L42.5592 17.5403L43.4164 17.2675L43.9229 17.1506L44.0787 17.0727C44.3125 16.9948 44.4683 16.9558 44.5852 17.1506C44.8579 17.5013 44.5073 17.9299 44.1566 18.3584L43.767 18.9039L42.9099 20.6571L42.7151 21.0467C42.3255 21.787 42.0917 22.2545 42.1696 23.0337L42.2475 23.3844L42.3255 23.8129C42.2865 23.9298 41.819 23.8909 41.5852 23.8909L41.3514 23.8519L41.2735 23.9688V24.0077L41.1566 23.9688L40.9229 23.774H40.767H40.7281L40.5722 23.6571L40.4553 23.5792L40.2995 23.4233L40.1437 23.2285C39.9489 23.0727 39.8709 22.761 39.8709 22.4493C39.8709 22.2935 39.8709 22.1766 39.9099 22.0597L40.1826 21.4753L40.5333 20.9688L40.806 20.5402L40.9618 20.3065C41.1566 20.0337 41.3904 19.6831 41.3904 19.4493V19.4104L41.3514 19.3714L41.3125 19.2156L41.1956 19.1766L41.1566 19.2545C40.8449 19.2156 40.3385 19.4493 40.1826 19.5662L39.0138 20.2285C38.4683 20.4623 38.2735 20.6961 37.806 21.1636ZM40.2216 19.7221C40.3774 19.5662 40.9229 19.3714 41.1177 19.4493C41.1177 19.6441 40.9229 19.9558 40.7281 20.1896L40.5722 20.4623L40.2995 20.8519L39.9489 21.3584L39.6761 21.9818C39.6372 22.0987 39.5982 22.2545 39.5982 22.4104C39.5982 22.761 39.7151 23.1506 39.9878 23.3454L40.1047 23.4623L40.2995 23.6961L40.3774 23.735L40.5722 23.8519H40.7281H40.767L41.0008 24.0857C41.1177 24.1246 41.2346 24.1246 41.3125 24.0857L41.3514 23.9688H41.5073C41.8579 24.0077 42.3255 24.0467 42.4423 23.774L42.3644 23.2285L42.2865 22.9558C42.2475 22.2155 42.4423 21.748 42.832 21.0857L43.0268 20.6961L43.9229 18.9428L44.2735 18.4364C44.6241 18.0078 45.0138 17.4623 44.7021 16.9948C44.4683 16.6831 44.1956 16.761 43.9618 16.8779L43.806 16.9169L43.2995 17.0338L42.4034 17.3065L41.6631 17.6182L41.1177 17.813L40.767 18.0078C40.767 18.0078 40.5333 18.1247 40.3385 18.2026C40.4943 17.9688 40.5722 17.774 40.5722 17.6961L40.5333 17.6182L40.8839 17.2675L41.3904 16.7221L41.4683 16.6052C41.819 15.9818 42.0917 15.3974 41.8969 15.1247L41.6631 14.9688L41.2346 15.1636L41.0398 15.2805H40.6891H40.2605L40.0657 15.3195C39.793 15.3974 39.5592 15.4364 39.4034 15.7481L39.0917 16.2935L38.5852 16.9948L38.0008 17.813L37.4164 18.6312C37.1047 19.1766 36.6372 19.6831 35.9748 20.1506C35.78 20.3065 35.2346 20.6961 34.845 21.2415L34.6112 21.5143C34.4164 21.748 34.1437 22.0207 34.1437 22.3714C34.1437 22.5272 34.1437 22.8 34.4554 22.8L34.7671 22.722L34.9229 22.6831C35.0008 22.722 35.1567 22.9948 35.2346 23.1896C35.3904 23.5013 35.5073 23.6961 35.6242 23.6571L36.2086 23.0337L37.4943 21.6311L37.806 21.3195C38.2735 20.8519 38.4683 20.6571 38.8969 20.4623L40.2216 19.7221ZM97.9225 14.1896C97.9225 14.3065 97.8836 14.6182 97.8836 14.6182C97.6498 14.9688 96.9875 15.1636 96.7147 15.2026L96.5979 15.2416L96.1693 15.4364L96.0524 15.5533C95.8576 15.5922 95.7018 15.5143 95.5459 15.1247L95.468 14.9299L95.2732 14.2675L95.468 13.9169L95.6238 13.6831C95.7797 13.3714 95.8576 13.2935 96.2082 13.1766L96.3251 13.1377L97.2602 12.9039C97.6498 12.9818 97.8056 13.7221 97.9225 14.1896ZM97.2212 12.5922L97.1433 12.6312C97.0654 12.6702 96.2082 12.865 96.2082 12.865L96.0524 12.9039C95.6628 13.0208 95.5459 13.1766 95.3511 13.5273L95.2342 13.7221L95.0005 14.1507L95.2342 14.8909L95.3122 15.0857C95.468 15.4753 95.6628 15.6701 95.8966 15.6701C96.0524 15.6701 96.0914 15.6312 96.1303 15.5533L96.2082 15.4753L96.5589 15.3195L96.7147 15.2805C97.0654 15.2026 97.7277 15.0078 98.0004 14.6182L98.0784 14.1117C97.9615 13.6052 97.7667 12.787 97.2212 12.5922ZM94.5329 19.2545L95.0784 18.6312L95.2732 18.3584L95.6238 17.8909C95.7797 17.7351 96.0134 17.5013 95.8186 17.2286L95.5849 17.0338L95.0394 17.1896L94.3771 17.4234C93.3641 17.4234 92.7797 18.2805 92.2342 18.9818L91.455 19.9948C90.9875 20.5792 90.481 21.1636 90.1693 21.8649L90.0135 22.1766L89.5849 22.9558L89.3122 23.5792L89.2732 23.774L89.3512 23.8909L89.468 23.8129L89.507 23.6181L89.7408 23.0337L90.1693 22.2156L90.3252 21.9039C90.6369 21.2415 91.1433 20.6571 91.6109 20.0727L92.3511 19.1376C92.8966 18.3584 93.481 17.5792 94.3771 17.5403L95.0784 17.3065L95.5459 17.1506L95.6628 17.2675C95.7797 17.4234 95.6628 17.5403 95.507 17.6961L95.1563 18.2026L94.9615 18.4753L94.455 19.0987L93.6758 20.1117L93.1303 20.8909L92.8966 21.2415L92.5849 21.9428L92.468 22.3324L92.0005 23.1116C91.8836 23.2675 91.8446 23.2285 91.7278 23.2285H91.4161L90.9485 23.4623L90.5979 23.6571L90.1693 23.735C90.1304 23.735 89.9745 23.735 89.8187 23.774L89.7797 23.6961L89.7018 23.774L89.5849 23.6571L89.6239 23.9298L89.7408 23.9688L90.0135 23.9298C90.0914 23.9298 90.52 23.8519 90.52 23.8519L90.9875 23.6181L91.4161 23.4233H91.6498C91.8057 23.4233 91.9226 23.4233 92.0784 23.2285L92.5849 22.3714L92.7018 21.9818L92.9745 21.3195L93.2083 20.9688L93.7537 20.1506L94.5329 19.2545ZM69.2863 17.5013L69.1695 17.5403L68.8188 17.8519L68.585 18.0857L68.1954 18.3195L67.6889 18.6312L67.1435 19.1766L65.7019 20.2675L65.5851 20.3454C65.0786 20.6961 64.4942 21.0857 64.0266 21.1636C63.9487 20.6182 64.4162 19.8779 64.7669 19.6052L65.4682 18.9428L66.3643 18.1247L66.4812 18.0467L68.0006 17.1117L68.624 17.0338L69.1305 16.9948C69.2474 16.9558 69.6759 17.0338 69.7928 17.1117L69.8707 17.1896C69.8707 17.2286 69.7928 17.3454 69.2863 17.5013ZM69.8707 16.9558C69.7539 16.8779 69.2474 16.8 69.0915 16.839L68.624 16.8779L67.8837 16.9558L66.3643 17.8909L66.2474 17.9688L65.3123 18.787L64.611 19.4493C64.1825 19.8 63.7539 20.5792 63.8318 21.1636L63.8708 21.2805L64.0266 21.3195C64.5331 21.2415 65.1175 20.813 65.663 20.4623L65.7409 20.3844L67.2214 19.2545L67.7669 18.7091L68.2344 18.4364L68.663 18.2026L68.9357 17.9688L69.2474 17.6961L69.3253 17.6571C69.6759 17.5403 69.9876 17.3844 70.0266 17.1896C70.0655 17.1117 69.9876 17.0338 69.8707 16.9558ZM69.9097 19.9558L69.2084 21.2026L68.9746 21.6311L68.8188 21.9039C68.624 22.2545 68.3513 22.722 68.3513 23.1116V23.2285L68.4682 23.4623L68.5461 23.5792V23.735V23.8519C68.5071 24.2026 68.4682 24.3194 68.1565 24.4363L67.65 24.709C67.3383 24.9428 67.0656 25.1376 66.637 24.9818C66.0915 24.787 65.9747 24.1636 66.1305 23.6571C66.2864 23.1506 66.5591 22.6052 66.9097 22.0987L67.2214 21.5143L67.4162 21.0857L67.9617 20.3454L68.1175 20.1896C68.3902 19.9169 68.7409 19.5662 68.7019 19.2545L68.663 19.1766H68.585C68.2344 19.2545 67.9617 19.5662 67.65 19.8389L67.1824 20.2675L66.2084 20.813L65.663 21.2805L65.2344 21.6311L64.5721 22.0597L63.8318 22.5272L63.1695 23.0727L62.9357 23.2675L62.5072 23.5792L62.3513 23.6181L62.3903 23.5013H62.5072L62.4292 23.4233H62.3123V23.5792L62.3513 23.6181C62.1955 23.6571 62.0786 23.5792 61.9227 23.4623C61.7279 23.1506 61.7669 22.8 61.8838 22.4104L61.9617 22.0597V22.0207H62.0007L62.3123 21.8259L62.5851 21.7091V21.6701V21.5922V21.4753C62.5072 21.3974 62.4682 21.3584 62.5072 21.2415C62.663 20.9298 62.702 20.774 62.5851 20.6571C62.5072 20.5792 62.3903 20.6182 62.1955 20.6961C62.3124 20.3065 62.5072 19.9169 62.7799 19.6831L65.3903 17.6571L66.0916 17.2675L66.7539 16.9169L67.2604 16.4883C67.5331 16.2156 67.8058 15.9818 68.1565 15.8649L68.585 15.7481L69.4811 15.4753C69.7149 15.3584 70.1045 15.3584 70.4941 15.3584L71.1565 15.3195C71.4681 15.2805 71.5461 15.2416 71.7409 15.4753L72.0915 15.7481L72.2863 15.8649L72.4811 16.1377V16.1766C72.4811 16.4104 72.2084 16.7221 72.0136 16.9558L71.8577 17.1506L71.3123 17.8909L70.9617 18.4364L70.4941 19.0597L69.9097 19.9558ZM62.0396 21.6701L62.1565 21.7091L62.0007 21.787L62.0396 21.6701ZM71.2344 18.5532L71.585 18.0078L72.0915 17.2675L72.2474 17.1117C72.4811 16.839 72.7928 16.5273 72.7928 16.2156V16.1766L72.559 15.7481L72.3642 15.5922L72.0525 15.3195C71.8188 15.0468 71.6629 15.0468 71.3123 15.1247L70.65 15.1636C70.2604 15.1636 69.8318 15.1636 69.5591 15.2805L68.7019 15.5533L68.2734 15.6701C67.8837 15.787 67.5721 16.0597 67.2993 16.3325L66.7928 16.761L66.1695 17.1117L65.4292 17.5403L62.7409 19.5273C62.3513 19.8389 62.1565 20.3454 62.0396 20.813L61.9617 20.8519L61.8838 20.8909L61.8448 20.9298L61.3773 21.2415L60.7929 21.5532L58.6111 22.4493L57.4812 22.9168L57.3254 22.9948L56.0007 23.4233C55.689 23.4623 54.9877 23.3065 54.7929 23.0727C54.2864 22.6052 54.8319 21.4753 55.0267 21.0857L55.6111 20.0727L56.3514 18.748C56.8189 17.9688 58.3773 15.826 59.1955 15.2805C59.663 14.9299 60.2085 14.6182 60.7539 14.7351L60.8318 14.6961L60.8708 14.6182C60.8708 14.5792 61.1046 14.5013 61.5331 14.4624L61.8838 14.4234L62.1565 14.3455L63.0526 14.1507L64.3383 13.839L64.8448 13.6831C65.2344 13.5663 66.0136 13.6831 66.4422 13.7611C66.9487 13.8779 67.0656 14.0727 67.3383 14.5013L67.4552 14.5403L67.6889 14.4234L68.1565 14.0727L68.663 13.2546C68.8578 12.9039 69.1695 12.3195 68.4292 11.8909C67.9227 11.5793 67.1825 11.6961 66.637 11.7741L66.4032 11.813L64.9227 12.0468L64.4552 12.1247L63.4422 12.3195L61.9617 12.5922C61.9617 12.5922 61.3383 12.6702 61.0656 12.7091C61.1046 12.5533 61.2604 12.4364 61.3773 12.3585L61.5721 12.2026L61.9617 11.7741L62.4292 11.2676L63.4422 10.0208L64.1045 9.12472L64.5331 8.61823L65.4682 7.52733L65.5851 7.41045L66.637 6.1637C66.7539 6.00786 66.8318 5.85201 66.8318 5.65721C66.8318 5.54033 66.7539 5.38448 66.637 5.18968C66.4812 5.03384 66.4032 4.99488 66.3253 4.99488C66.2474 4.99488 66.1695 5.0728 66.1305 5.11176L65.9747 5.2676L65.7799 5.30656H65.5851L65.3513 5.42344L65.2344 5.50137H65.0786L64.8448 5.54033L64.65 5.73513L64.5331 5.85201V6.00786H64.65L64.8058 5.85201L64.9227 5.69617L65.0786 5.65721L65.2734 5.61825L65.4292 5.54033L65.5851 5.46241H65.7409L66.0526 5.42344L66.2474 5.22864L66.4812 5.30656C66.7149 5.57929 66.676 5.73513 66.4812 6.00786L65.4292 7.21564L65.3123 7.37148L64.3773 8.46239L63.9487 8.96888L63.2474 9.90394L62.2344 11.1507L61.7669 11.6572L61.3773 12.0468L61.1825 12.2026C60.9877 12.3585 60.715 12.5533 60.715 12.826L60.7539 12.9039L60.8318 12.9429L61.9617 12.787L63.4422 12.5143L64.4162 12.3195L64.8838 12.2416L66.3643 12.0078L66.598 11.9689C67.1045 11.8909 67.8448 11.7741 68.2734 12.0468C68.5461 12.2026 68.624 12.3974 68.624 12.5533C68.624 12.7481 68.5461 12.9429 68.4292 13.1377L67.9227 13.9169L67.4941 14.2286L67.2993 14.3065C67.0656 13.9169 66.8708 13.6831 66.3643 13.5663C65.9357 13.4494 65.0786 13.3325 64.65 13.4494L64.1435 13.6052L62.8968 13.9169L61.9617 14.1117L61.689 14.1896L61.3773 14.2286C61.0266 14.2675 60.7539 14.3455 60.637 14.5013L60.5202 14.5792L60.5591 14.5013L60.5981 14.4624C60.0137 14.3844 59.4292 14.6961 58.9228 15.0468C58.0656 15.6312 56.5072 17.813 56.0397 18.5922L55.2994 19.9169L54.715 20.9298C54.4423 21.3584 53.9358 22.6052 54.4812 23.1506C54.754 23.4233 55.5332 23.5792 55.8838 23.5402L57.2474 23.1116L57.4033 23.0337L58.5721 22.5662L60.7539 21.6701L61.3773 21.3584L61.7669 21.0857L61.689 21.2026H61.8448L61.7279 21.8259C61.5331 21.9039 61.0656 22.1376 61.0656 22.1376L60.5591 22.3714L59.4682 22.9558L58.8838 23.1896L58.0656 23.5402L57.715 23.8129L57.3254 24.0857L56.1176 24.5922L55.8838 24.709L55.3384 24.9818L54.4812 25.1766L54.0527 25.0986L53.5462 25.0207L53.4682 25.0597L53.4293 25.0986V25.1376C53.4293 25.1376 53.4683 25.2545 53.5072 25.3324C53.0397 25.2935 52.689 25.1766 52.4163 24.9428L51.9877 24.2026L51.9098 24.0467C51.8709 23.9298 51.8319 23.8129 51.8319 23.6961C51.8319 23.5792 51.8319 23.4623 51.8709 23.3454L51.9098 23.0727L52.1436 22.2545L52.3384 21.787L52.9228 20.5402L53.0786 20.2285L53.3514 19.761L54.5981 18.0078L54.9098 17.5792C55.7669 16.4104 56.1176 15.787 56.1565 15.5533L56.1176 15.4753L56.0397 15.4364H55.728C55.4942 15.4753 55.2604 15.4753 55.1436 15.3195C54.9877 15.1247 55.0656 14.9299 55.1825 14.7351L55.2604 14.6182L55.3773 14.3844L55.4163 14.2675L55.5332 14.0338C55.689 13.8779 55.8449 13.839 56.0397 13.8L56.5851 13.7221C57.1306 13.6831 57.715 13.6052 58.1046 13.2546L59.3124 11.8909L59.5072 11.6572L60.5981 10.3715L61.4552 9.47537L61.689 9.16368L62.2734 8.50135L62.7409 8.07278C63.4033 7.48837 64.1045 6.86499 64.4942 6.00786L64.4552 5.89097L64.3383 5.92994C63.9877 6.74811 63.2864 7.33252 62.624 7.91694L62.1565 8.3455L61.5721 9.00784L61.3383 9.31952L60.4812 10.2156L59.3513 11.5013L59.1565 11.7351L57.9877 13.0987C57.676 13.4104 57.1306 13.4494 56.5851 13.4883L56.0397 13.5663C55.8059 13.6052 55.5721 13.6052 55.4163 13.839L55.2994 14.1117L55.2604 14.2286L55.1825 14.4234L55.1046 14.5403C54.9877 14.6961 54.8319 15.0078 55.0656 15.3584C55.2604 15.5922 55.5332 15.5533 55.8059 15.5533H55.9617C55.8838 15.787 55.5332 16.3714 54.7929 17.3455L54.4812 17.813L53.2345 19.6052L52.9618 20.0727L52.8059 20.3844L52.1825 21.6701L52.0267 22.0987L51.7929 22.9948L51.754 23.2675C51.715 23.3844 51.715 23.5402 51.715 23.6571C51.715 23.774 51.715 23.9298 51.7929 24.0857L51.8709 24.2415L52.3384 25.0597C52.6501 25.3324 53.0786 25.4883 53.702 25.5272L53.7799 25.4883V25.3714V25.3324L53.741 25.1766C53.8579 25.1766 54.0527 25.2155 54.0527 25.2155L54.5202 25.3324L55.4553 25.1376L56.0786 24.8649L56.3124 24.748L57.5202 24.2415L57.9487 23.9688L58.2994 23.735L59.0786 23.3844L59.663 23.1506L60.7539 22.5662L61.2604 22.3714L61.8059 22.1376C61.7669 22.2545 61.7669 22.4104 61.7669 22.4104C61.689 22.8 61.5721 23.1896 61.8448 23.6181C62.1175 23.8519 62.3513 23.9688 62.702 23.8129L63.1695 23.4623L63.4033 23.2675L64.0656 22.722L64.7669 22.2545L65.4292 21.8259L65.8578 21.4363L66.4032 21.0078L67.3773 20.5013L67.8837 20.0727C68.0785 19.8779 68.3123 19.6831 68.5071 19.5662C68.3902 19.761 68.1954 19.9948 68.0396 20.1896L67.8837 20.3454L67.3383 21.1246L67.1045 21.5922L66.8318 22.1766C66.4812 22.6831 66.2084 23.2285 66.0136 23.774C65.9747 23.9298 65.9357 24.0857 65.9357 24.2415C65.9357 24.709 66.1305 25.1376 66.637 25.3324C67.1435 25.5272 67.4941 25.2935 67.8448 25.0597L68.3123 24.787C68.7019 24.6311 68.7409 24.4363 68.7798 24.0467L68.8188 23.9298L68.7798 23.6571L68.663 23.5013L68.585 23.3454V23.2285C68.585 22.9168 68.8188 22.4883 69.0526 22.1376L69.2084 21.8649L69.4422 21.4363L70.1045 20.1896L70.7668 19.2935L71.2344 18.5532ZM32.8969 18.2026L32.6632 18.5143C31.806 19.6831 31.2606 20.1896 30.4424 20.6182L29.858 20.8909L29.3905 21.0857L28.9619 21.5143L28.7281 21.8259C28.3775 22.1376 27.9489 22.0597 27.4814 21.9818C27.4814 21.9818 27.3645 21.9428 27.2866 21.9428C27.3645 21.2805 27.6762 20.813 27.9489 20.4623L28.1437 20.1506C28.6502 19.3714 29.2736 18.9428 29.9359 18.5143L30.9879 17.4623C31.2996 17.0727 31.6502 16.6831 32.0398 16.4104L32.1957 16.2545C32.5073 16.0208 33.0917 15.5143 33.5593 15.5922C33.7151 15.6312 33.832 15.7091 33.9489 15.8649C33.9878 15.9429 34.0268 16.0208 34.0268 16.1377C34.0268 16.6831 33.3645 17.5792 32.8969 18.2026ZM33.5982 15.3974C33.0528 15.3195 32.4294 15.826 32.0788 16.0987L31.9619 16.2156C31.5723 16.4883 31.2216 16.9169 30.871 17.3065L29.858 18.3195C29.1957 18.787 28.5723 19.2156 27.9879 20.0337L27.7931 20.3065C27.4814 20.6961 27.1307 21.2026 27.0528 21.9818V22.0987L27.1307 22.1766L27.2476 22.0987C27.3256 22.0987 27.4424 22.1376 27.4424 22.1376C27.91 22.2156 28.4165 22.3324 28.845 21.9428L29.1177 21.5922L29.4684 21.2415L29.9359 21.0467L30.5203 20.774C31.3775 20.3454 31.9229 19.8 32.7801 18.5922L33.0138 18.2805C33.6372 17.4623 34.4554 16.3714 34.0658 15.7481C33.9878 15.5533 33.832 15.4364 33.5982 15.3974ZM35.4294 17.0338L35.3515 17.3844C35.1956 17.8909 34.1047 19.2935 33.7151 19.6441L33.2866 20.1117L32.9359 20.5402L32.1957 21.3974L31.806 21.8649L30.9879 22.2935L29.858 22.9168L29.1177 23.3454L28.6892 23.5402L28.3775 23.774C28.1437 23.9298 27.91 24.1246 27.6372 24.0857L27.4424 24.0077L27.1697 23.8909C27.0139 23.8909 26.9359 23.8909 26.897 23.9688C26.6632 24.1246 26.6243 24.1636 26.2346 23.9298C25.8061 23.6571 25.3775 23.1896 25.3385 22.9168L25.4165 22.4883C25.2217 22.1376 25.1827 21.8649 25.1827 21.6701C25.1827 21.3584 25.3385 21.2026 25.5723 20.9688L25.8061 20.6961L26.1957 20.0727L26.5074 19.6052L27.7152 18.1636L27.91 17.9299L28.4944 17.3455L29.2736 16.5662L29.5463 16.1766C29.819 15.7481 30.0528 15.3195 30.5593 15.1636C30.9489 15.0468 32.1177 14.0727 32.2736 13.9169C32.5073 13.7221 34.4943 13.2935 35.0398 13.6052L35.1567 13.6831C35.7411 14.0727 36.5593 14.5792 36.3255 15.7481V15.826C36.832 16.6442 37.3385 16.8779 37.5722 16.9948L37.4943 17.1117L37.3385 17.2286H37.1047C36.9489 17.1896 36.832 17.2286 36.7151 17.4623L36.6372 17.6571C36.5593 17.813 36.5593 17.813 36.1307 17.6571L35.9359 17.3844L35.7411 17.1117C35.6632 16.8779 35.6242 16.8 35.5463 16.8C35.4684 16.839 35.4684 16.9169 35.4294 17.0338ZM35.5852 17.2286L35.78 17.5403L36.0138 17.813C36.5593 18.0078 36.6761 18.0078 36.793 17.7351L36.832 17.6182C36.9099 17.4623 36.9489 17.4623 37.0268 17.4623L37.3774 17.4234L37.6112 17.2675L37.7281 17.1896L37.806 17.0338C37.806 16.9558 37.7281 16.9169 37.6502 16.8779C37.4164 16.8 36.9489 16.5662 36.5203 15.787C36.5203 15.6701 36.5593 15.5143 36.5593 15.3974C36.5593 14.4234 35.78 13.9169 35.3125 13.6052L35.1177 13.4883C34.5333 13.1377 32.4294 13.5273 32.1177 13.8C31.845 14.0338 30.7931 14.8909 30.4814 14.9688C29.897 15.1636 29.6242 15.6312 29.3515 16.0597L29.0788 16.4494L28.3385 17.1896L27.7152 17.774L27.5204 18.0078L26.3126 19.5273L26.0009 20.0337L25.6113 20.6182L25.3775 20.8519C25.0269 21.2026 24.7152 21.5143 25.2217 22.5272L25.1048 22.9168C25.1437 23.4623 25.9619 24.0467 26.0788 24.0857C26.5074 24.3584 26.6243 24.3584 26.897 24.2026L27.0139 24.1246C27.0528 24.0857 27.0528 24.0857 27.1307 24.1246L27.3255 24.2026L27.5983 24.3194C27.9489 24.3584 28.2216 24.1246 28.4944 23.9298L28.8061 23.735L29.2346 23.5402L30.0138 23.1116L31.1047 22.4883L31.9229 22.0597L32.4294 21.5143L33.1307 20.6961L33.5203 20.2675L33.9099 19.8389C34.3385 19.4883 35.3904 18.0467 35.5852 17.5013C35.5852 17.4234 35.5852 17.3454 35.5852 17.2286Z" fill="#EFEFEF"/>
<path d="M51.7539 34.4882V29.8129H49.8838V29.2675H54.3253V29.8129H52.4942V34.4882H51.7539Z" fill="#EFEFEF"/>
<path d="M55.4941 34.4882V28.9168H56.1954V31.3713C56.5461 30.8259 57.0136 30.5532 57.5201 30.5532C57.8708 30.5532 58.1045 30.67 58.2993 30.8648C58.4941 31.0597 58.611 31.3713 58.611 31.722V34.4492H57.9097V31.9168C57.9097 31.6441 57.8708 31.4493 57.7928 31.2934C57.7149 31.1765 57.5591 31.0986 57.4032 31.0986C56.9747 31.0986 56.585 31.3713 56.1954 31.9168V34.3713H55.4941" fill="#EFEFEF"/>
<path d="M60.8318 32.1505H62.5071C62.5071 31.4493 62.2344 31.0986 61.7279 31.0986C61.2214 31.0986 60.9097 31.4493 60.8318 32.1505ZM63.2084 34.3713C62.7409 34.5272 62.3513 34.5661 62.0006 34.5661C61.4552 34.5661 60.9877 34.3713 60.637 34.0207C60.2864 33.6311 60.0916 33.1635 60.0916 32.5791C60.0916 31.9947 60.2474 31.5272 60.5591 31.1765C60.8708 30.7869 61.2604 30.6311 61.7669 30.6311C62.2344 30.6311 62.585 30.7869 62.8188 31.1376C63.0526 31.4493 63.2084 31.9168 63.2084 32.5402V32.735H60.7928C60.8708 33.6311 61.3383 34.0986 62.1175 34.0986C62.3902 34.0986 62.7799 34.0207 63.1695 33.8648V34.3713" fill="#EFEFEF"/>
<path d="M145.805 32.5012L144.909 30.2415L144.013 32.5012H145.805ZM146.585 34.4882L146 33.0467H143.779L143.195 34.4882H142.533L144.598 29.3064H145.338L147.364 34.4882H146.585Z" fill="#EFEFEF"/>
<path d="M151.026 33.1635V31.5661C150.714 31.2544 150.403 31.0986 150.013 31.0986C149.701 31.0986 149.468 31.2155 149.273 31.4882C149.078 31.722 149 32.0726 149 32.5401C149 33.3583 149.312 33.7869 149.896 33.7869C150.286 33.7869 150.675 33.5921 151.026 33.1635ZM148.611 35.7349L148.688 35.1505C149.078 35.3453 149.468 35.4232 149.857 35.4232C150.636 35.4232 151.026 34.9947 151.026 34.1765V33.5921C150.753 34.1375 150.364 34.4103 149.779 34.4103C149.312 34.4103 148.961 34.2544 148.688 33.9038C148.416 33.5921 148.299 33.1246 148.299 32.5791C148.299 31.9947 148.455 31.5272 148.766 31.1376C149.078 30.7869 149.468 30.5921 149.974 30.5921C150.403 30.5921 150.753 30.7479 151.065 31.0986V30.67H151.766V33.4362C151.766 34.0207 151.727 34.4882 151.688 34.7609C151.649 35.0336 151.494 35.2674 151.338 35.4622C151.026 35.7739 150.559 35.9297 149.935 35.9297C149.429 35.9687 149 35.8908 148.611 35.7349Z" fill="#EFEFEF"/>
<path d="M153.948 32.1505H155.623C155.623 31.4493 155.351 31.0986 154.805 31.0986C154.299 31.0986 153.987 31.4493 153.948 32.1505ZM156.325 34.3713C155.857 34.5272 155.468 34.5661 155.117 34.5661C154.533 34.5661 154.104 34.3713 153.753 34.0207C153.403 33.6311 153.208 33.1635 153.208 32.5791C153.208 31.9947 153.364 31.5272 153.675 31.1765C153.987 30.7869 154.377 30.6311 154.883 30.6311C155.351 30.6311 155.701 30.7869 155.974 31.1376C156.208 31.4493 156.364 31.9168 156.364 32.5402V32.735H153.909C154.026 33.6311 154.455 34.0986 155.234 34.0986C155.507 34.0986 155.896 34.0207 156.286 33.8648V34.3713" fill="#EFEFEF"/>
<path d="M157.961 34.4882V30.67H158.662V31.3713C159.013 30.8259 159.481 30.5532 160.026 30.5532C160.338 30.5532 160.611 30.67 160.805 30.8648C161 31.0597 161.117 31.3713 161.117 31.722V34.4492H160.416V31.9168C160.416 31.6441 160.377 31.4493 160.299 31.2934C160.221 31.1765 160.065 31.0986 159.87 31.0986C159.442 31.0986 159.052 31.3713 158.662 31.9168V34.3713H157.961" fill="#EFEFEF"/>
<path d="M164.351 34.5661C163.844 34.5661 163.416 34.3713 163.065 33.9817C162.714 33.5921 162.558 33.1246 162.558 32.5401C162.558 31.9168 162.714 31.4492 163.065 31.0986C163.416 30.7479 163.883 30.5921 164.468 30.5921C164.779 30.5921 165.091 30.6311 165.481 30.709V31.2934C165.091 31.1765 164.779 31.1376 164.507 31.1376C164.156 31.1376 163.883 31.2544 163.649 31.5272C163.455 31.7999 163.338 32.1505 163.338 32.5791C163.338 33.0077 163.455 33.3583 163.649 33.631C163.883 33.9038 164.156 34.0207 164.507 34.0207C164.818 34.0207 165.13 33.9427 165.481 33.7869V34.3713C165.052 34.4882 164.662 34.5661 164.351 34.5661Z" fill="#EFEFEF"/>
<path d="M167.195 35.8518L167.818 34.4882L166.338 30.67H167.078L168.169 33.5531L169.338 30.67H170L167.935 35.8518H167.195Z" fill="#EFEFEF"/>
</svg>
